<svg fill="none" height="376" viewBox="0 0 496 376" width="496" xmlns="http://www.w3.org/2000/svg" xmlns:xlink="http://www.w3.org/1999/xlink"><linearGradient id="a"><stop offset="0" stop-color="#808080" stop-opacity=".25"/><stop offset=".54" stop-color="#808080" stop-opacity=".12"/><stop offset="1" stop-color="#808080" stop-opacity=".1"/></linearGradient><linearGradient id="b" gradientUnits="userSpaceOnUse" x1="386.683" x2="386.683" xlink:href="#a" y1="368.834" y2="142.465"/><linearGradient id="c" gradientUnits="userSpaceOnUse" x1="25722.1" x2="59430.4" xlink:href="#a" y1="143623" y2="143623"/><linearGradient id="d" gradientUnits="userSpaceOnUse" x1="305.237" x2="305.915" xlink:href="#a" y1="502.252" y2="502.252"/><linearGradient id="e" gradientUnits="userSpaceOnUse" x1="306.194" x2="306.872" xlink:href="#a" y1="505.731" y2="505.731"/><linearGradient id="f" gradientUnits="userSpaceOnUse" x1="306.194" x2="306.872" xlink:href="#a" y1="502.252" y2="502.252"/><path d="m245.806 376c104.241 0 188.745-6.106 188.745-13.638 0-7.533-84.504-13.639-188.745-13.639s-188.745 6.106-188.745 13.639c0 7.532 84.504 13.638 188.745 13.638z" fill="#5843e4" opacity=".1"/><path d="m490.206 299.753c-2.057 3.164-4.579 5.998-7.483 8.407-.799.66-1.628 1.302-2.47 1.9-10.782 7.739-25.219 11.14-39.243 13.344-27.229 4.277-55.026 5.11-82.705 5.925-23.305.694-46.622 1.388-69.935 1.848-33.323.668-66.65.868-99.92 0-18.187-.477-36.359-1.319-54.517-2.525-33.692-2.303-68.2514-6.372-97.5806-20.583-5.3668-2.563-10.4957-5.597-15.3265-9.066-7.9649-5.8-14.52347-12.818-18.03064-21.13-5.64273-13.361-2.660768-28.374 3.78496-41.474 3.90648-7.921 8.98058-15.339 14.24568-22.692 3.1166-4.364 6.3025-8.702 9.3322-13.105.3169-.434.6251-.898.9289-1.349.586-.867 1.1676-1.735 1.7362-2.603 2.3787-3.656 4.6314-7.43 6.6975-11.278 2.0596-3.838 3.9212-7.779 5.5776-11.808 1.5193-3.681 2.8237-7.447 3.9065-11.278.7206-2.581 1.3283-5.171 1.797-7.761 2.5653-14.102 1.211-28.196-6.3849-40.954-.0738-.126-.1519-.26-.2301-.386l-.0955-.152c-2.1442-3.518-4.7312-6.832-7.2747-10.159-3.0384-3.9911-6.0291-8.008-8.1343-12.4023-5.5385-11.6125-4.3405-24.6696-2.3265-37.0716 2.6868-16.484 7.6871-34.2694 23.1699-44.54583 16.0818-10.69725 38.9131-10.15501 58.8753-6.32899 31.018 5.9299 59.661 18.36662 88.582 29.58882 28.921 11.2221 59.201 21.4855 91 22.583 28.079.9761 60.829-6.3116 79.463-25.2682 18.1-18.4057 52.125-19.80683 76.658-8.6758 23.405 10.6062 38.54 33.0591 37.403 55.4773-1.658 32.6516-33.145 57.6936-51.931 86.2636-.842 1.275-1.662 2.581-2.443 3.904-7.379 12.463-11.924 26.773-6.481 39.748 7.301 17.382 28.978 25.863 47.26 36.781 8.829 5.271 16.885 11.114 22.094 18.818.195.277.373.551.551.824 7.348 11.365 6.793 25.88-.551 37.184z" fill="#5843e4" opacity=".1"/><path d="m33.0187 196.641c2.3787-3.657 4.6314-7.431 6.6975-11.278 2.0608-3.836 3.9239-7.774 5.582-11.8 1.5193-3.68 2.8236-7.446 3.9065-11.278.7205-2.581 1.3282-5.171 1.797-7.761 2.5652-14.102 1.211-28.196-6.385-40.954-.0738-.125-.1519-.26-.23-.386l-7.379-10.311h54.7562v36.334h15.2311v108.99h19.654v-35.354h23.582v35.354h19.641v-60.397h.981v-31.423h18.665v31.423h43.236v47.136h24.077v-14.749h14.758v14.749h24.073v-139.4459h31.443v-22.0973h5.404v22.0973h8.841v43.6999h15.726v-36.334h13.265v-37.3061h27.51v37.3061h13.269v36.334h16.212v27.203c-7.378 12.463-11.923 26.773-6.48 39.748 7.301 17.382 28.978 25.863 47.26 36.781 8.829 5.275 16.885 11.118 22.093 18.822v38.022c-2.057 3.158-4.58 5.988-7.483 8.394-.798.659-1.627 1.301-2.469 1.9-10.782 7.738-25.219 11.139-39.243 13.343-27.229 4.277-55.026 5.11-82.705 5.926-23.305.694-46.622 1.388-69.936 1.848h-99.928c-18.187-.478-36.359-1.319-54.517-2.525-33.692-2.304-68.2512-6.373-97.5804-20.583-5.3669-2.564-10.4958-5.598-15.3265-9.067v-85.296c3.1165-4.364 6.3025-8.701 9.3322-13.104z" fill="#5843e4" opacity=".3"/><g fill="#fff"><path d="m50.9842 154.507v7.761h-1.7796c.7032-2.581 1.3022-5.171 1.7796-7.761z" opacity=".4"/><path d="m76.5327 162.268h20.635v-11.786h-20.635z" opacity=".4"/><path d="m50.9842 173.563v11.782h-11.2855c2.0662-3.829 3.935-7.761 5.5994-11.782z" opacity=".4"/><path d="m76.5327 185.345h20.635v-11.786h-20.635z" opacity=".4"/><path d="m33.0186 196.637h17.9655v11.786h-20.635v-7.821z" opacity=".4"/><path d="m76.5327 208.423h20.635v-11.786h-20.635z" opacity=".4"/><path d="m50.9841 219.719h-20.635v11.786h20.635z" opacity=".4"/><path d="m76.5327 231.5h20.635v-11.786h-20.635z" opacity=".4"/><path d="m50.9841 242.796h-20.635v11.786h20.635z" opacity=".4"/><path d="m76.5327 254.578h20.635v-11.786h-20.635z" opacity=".4"/><path d="m50.9841 265.874h-20.635v11.786h20.635z" opacity=".4"/><path d="m76.5327 277.656h20.635v-11.787h-20.635z" opacity=".4"/><path d="m50.9841 288.951h-20.635v11.786h20.635z" opacity=".4"/><path d="m76.5327 300.733h20.635v-11.786h-20.635z" opacity=".4"/><path d="m162.515 259.979h-48.15v5.891h48.15z" opacity=".4"/><path d="m162.515 268.819h-48.15v5.891h48.15z" opacity=".4"/><path d="m162.515 277.656h-48.15v5.89h48.15z" opacity=".4"/><path d="m288.291 262.928h-48.15v5.891h48.15z" opacity=".4"/><path d="m288.291 271.765h-48.15v5.891h48.15z" opacity=".4"/><path d="m288.291 280.601h-48.15v5.891h48.15z" opacity=".4"/><path d="m162.515 286.496h-48.15v5.891h48.15z" opacity=".4"/><path d="m162.515 295.333h-48.15v5.89h48.15z" opacity=".4"/><path d="m162.515 304.173h-48.15v5.891h48.15z" opacity=".4"/><path d="m193.463 199.096h-13.265v17.187h13.265z" opacity=".4"/><path d="m209.189 216.279h13.265v-17.187h-13.265z" opacity=".4"/><path d="m193.463 226.59h-13.265v17.187h13.265z" opacity=".4"/><path d="m209.189 243.777h13.265v-17.187h-13.265z" opacity=".4"/><path d="m193.463 254.088h-13.265v17.186h13.265z" opacity=".4"/><path d="m209.189 271.275h13.265v-17.187h-13.265z" opacity=".4"/><path d="m193.463 281.586h-13.265v17.186h13.265z" opacity=".4"/><path d="m209.189 298.772h13.265v-17.186h-13.265z" opacity=".4"/><path d="m313.345 106.786h-17.688v22.587h17.688z" opacity=".4"/><path d="m313.345 139.19h-17.688v22.587h17.688z" opacity=".4"/><path d="m313.345 171.598h-17.688v22.588h17.688z" opacity=".4"/><path d="m313.345 204.007h-17.688v22.587h17.688z" opacity=".4"/><path d="m313.345 236.411h-17.688v22.587h17.688z" opacity=".4"/><path d="m313.345 268.819h-17.688v22.588h17.688z" opacity=".4"/><path d="m417.262 152.941h-65.837v19.148h65.837z" opacity=".4"/><path d="m417.505 194.186h-65.837v19.147h65.837z" opacity=".4"/><path d="m417.753 235.431h-65.838v19.147h65.838z" opacity=".4"/><path d="m417.996 276.675h-65.838v19.148h65.838z" opacity=".4"/><path d="m44.5992 113.167v.386c-.0738-.126-.1519-.26-.2301-.386z" opacity=".4"/><path d="m490.205 261.744v7.088h-22.093v-25.897c8.829 5.262 16.885 11.105 22.093 18.809z" opacity=".4"/><path d="m490.205 281.586v18.167c-2.056 3.163-4.579 5.997-7.483 8.407-.798.659-1.627 1.301-2.47 1.9h-12.153v-28.474z" opacity=".4"/></g><path d="m151.06 88.9528h-3.381c.627 0 1.229-.2491 1.672-.6925.444-.4433.693-1.0447.693-1.6717s-.249-1.2283-.693-1.6717c-.443-.4433-1.045-.6924-1.672-.6924h-27.385c-.627 0-1.229.2491-1.673.6924-.443.4434-.692 1.0447-.692 1.6717s.249 1.2284.692 1.6717c.444.4434 1.046.6925 1.673.6925h3.381c-.61.0261-1.187.2868-1.609.7278-.423.4409-.659 1.0279-.659 1.6385s.236 1.1976.659 1.6386c.422.4409.999.7016 1.609.7277h-4.731c-.627 0-1.229.2491-1.673.6925-.443.4433-.692 1.0447-.692 1.6717s.249 1.2283.692 1.6717c.444.4433 1.046.6924 1.673.6924h27.38c.628 0 1.23-.2491 1.673-.6924.444-.4434.693-1.0447.693-1.6717s-.249-1.2284-.693-1.6717c-.443-.4434-1.045-.6925-1.673-.6925h4.736c.61-.0261 1.187-.2868 1.61-.7277.423-.441.659-1.028.659-1.6386s-.236-1.1976-.659-1.6385c-.423-.441-1-.7017-1.61-.7278z" fill="#5843e4" opacity=".1"/><path d="m271.923 148.365h-3.381c.627 0 1.229-.249 1.672-.693.444-.443.693-1.044.693-1.672 0-.627-.249-1.228-.693-1.671-.443-.444-1.045-.693-1.672-.693h-27.385c-.627 0-1.229.249-1.673.693-.443.443-.693 1.044-.693 1.671 0 .628.25 1.229.693 1.672.444.444 1.046.693 1.673.693h3.373c-.611.026-1.188.287-1.61.727-.423.441-.659 1.028-.659 1.639s.236 1.198.659 1.639c.422.44.999.701 1.61.727h-4.732c-.31 0-.618.061-.905.18s-.548.293-.767.513c-.22.219-.394.48-.513.767s-.18.594-.18.904c0 .311.061.618.18.905s.293.548.513.767c.219.22.48.394.767.513.287.118.595.18.905.18h27.389c.628 0 1.229-.249 1.673-.693.444-.443.693-1.045.693-1.672s-.249-1.228-.693-1.671c-.444-.444-1.045-.693-1.673-.693h4.736c.61-.026 1.187-.287 1.61-.727.422-.441.658-1.028.658-1.639s-.236-1.198-.658-1.639c-.423-.44-1-.701-1.61-.727z" fill="#5843e4" opacity=".1"/><path d="m477.783 70.7857h-3.382c.628 0 1.23-.2491 1.673-.6925.444-.4433.693-1.0447.693-1.6717s-.249-1.2283-.693-1.6717c-.443-.4433-1.045-.6924-1.673-.6924h-27.384c-.627 0-1.229.2491-1.673.6924-.443.4434-.693 1.0447-.693 1.6717s.25 1.2284.693 1.6717c.444.4434 1.046.6925 1.673.6925h3.381c-.627 0-1.229.2491-1.673.6924-.443.4434-.692 1.0447-.692 1.6717s.249 1.2284.692 1.6717c.444.4434 1.046.6925 1.673.6925h-4.731c-.61.0261-1.187.2868-1.61.7277-.423.441-.659 1.028-.659 1.6386s.236 1.1976.659 1.6386c.423.4409 1 .7016 1.61.7277h27.38c.32.0137.639-.0374.938-.1501.299-.1128.572-.2849.803-.506.231-.221.415-.4865.54-.7805.126-.2939.191-.6101.191-.9297s-.065-.6358-.191-.9297c-.125-.294-.309-.5594-.54-.7805s-.504-.3932-.803-.506c-.299-.1127-.618-.1638-.938-.1501h4.736c.627 0 1.229-.2491 1.673-.6925.443-.4433.692-1.0447.692-1.6717s-.249-1.2283-.692-1.6717c-.444-.4433-1.046-.6924-1.673-.6924z" fill="#5843e4" opacity=".1"/><path d="m438.483 187.258.026-.039-.104-.069-.212-.143c.015.009.028.021.039.034-.187-.108-.407-.143-.618-.099-.211.045-.398.167-.524.342l-.13.178-6.077 8.719-1.063 1.532c-3.195-.963-8.386 3.088-11.021 5.409l-.46.412c-.209-.468-.33-.763-.33-.763-.13 1.422-5.17 3.561-6.346 4.337-.53.319-1.122.52-1.736.59.165-5.426-4.028-11.135-4.028-11.135l-10.248-13.048c-.378-2.359-.013-4.777 1.046-6.919.082-.169.173-.339.269-.508h.434.056c.837-.001 1.672-.075 2.496-.221 3.017-.535 5.767-2.067 7.808-4.35 2.041-2.284 3.255-5.187 3.447-8.243 1.033-.265 1.91-1.223 1.763-2.325.038-.209.038-.424 0-.633-.028-.132-.068-.261-.118-.386-.29-.742-.916-1.341-1.367-2.018-.633-.991-.972-2.142-.977-3.318.04-1.027.2-2.047.478-3.037.207-.59.305-1.213.291-1.839v-.126c.008-.163 0-.327-.022-.49-.019-.116-.046-.231-.082-.343-.253-.698-.737-1.288-1.372-1.674-1.623-1.058-3.703-1.076-5.526-1.735-2.647-.967-5.039-3.358-7.813-2.781-1.51.313-2.669 1.471-3.976 2.286-1.441.902-3.096 1.404-4.796 1.458-1.428.043-2.873-.234-4.28 0-.252.045-.501.112-.742.199-1.196-.406-2.453-.604-3.715-.585-1.24-.032-2.46.305-3.508.967-1.901 1.323-2.404 3.904-2.378 6.199-.003.019-.003.038 0 .056v.434c0 1.102.108 2.221.13 3.323.011 1.028-.136 2.052-.434 3.037-.868 2.724-3.381 4.806-3.885 7.63-.085.487-.114.981-.087 1.475-.034 1.596.478 3.197.951 4.745.981 3.202 1.736 6.603 1.762 9.926-.02 2.063-.431 4.105-1.211 6.016-.235.559-.525 1.092-.868 1.592-.113.156-.23.313-.356.46l-.048.056c-.108.126-.225.243-.343.356l-.095.091c-.112.099-.23.191-.352.278l-.117.087c-.163.11-.334.207-.512.29l.868-.052c-.265.221-.557.407-.868.555l4.61-.269c.011.05.019.101.021.152-.013.115-.035.228-.065.339-.031.107-.069.213-.113.316.001.015.001.029 0 .044-.093.206-.213.4-.356.577l-.039.043c-.071.088-.147.17-.23.247-.079.071-.163.136-.251.196l-.057.043c-.092.059-.188.113-.286.16-.096.044-.195.082-.295.113l-.079.022c-.105.029-.212.05-.321.061l.434-.048c.291-.035.582-.074.868-.122h.087c-.37.383-.86.626-1.389.69.993-.077 1.974-.271 2.921-.577.599 4.03 1.932 16.311 1.198 18.579-.785 2.417 1.22 20.133 1.22 20.133s.274 1.357.751 3.383c-1.233 2.911-2.639 6.13-3.347 7.422-1.415 2.603-.72 15.816 4.167 21.69 0 0 2.023 2.85 1.489 3.904s.091 2.854.091 2.854l.773 17.109c-.017 1.748-.137 3.493-.36 5.227-2.079 2.581-5.296 6.342-6.806 6.941-2.34.95-19.789 22.123-19.789 22.123s.139.256.412.672l-.49.568-3.347 3.879-.264.308c-.63-.118-4.81-.868-8.135-1.12l-.325-.021v-.057c-1.168-.137-2.349-.106-3.507.091h-.026c-.218.043-.419.149-.578.304-1.133 1.384-1.736 23.164-1.736 23.164s1.207 10.88 4.957 11.505c.196.067.401.107.608.117h.004c.069.004.139.004.208 0 2.692-.196 3.907-1.736 4.467-2.798.164-.32.289-.658.373-1.007 0 0-.434-1.943.742-4.62 1.177-2.676 3.36-7.348 3.36-7.348s3.989-4.195 3.277-6.229l.382-.551c1.502-2.134 4.527-6.351 6.975-9.166l.478-.542c.892.379 1.826.65 2.782.807 0 0 3.75-1.467 5.148-4.772.595-1.397 2.921-3.87 5.4-6.255-.052.407-.078.637-.078.637l-.087 20.822c.806.555 1.665 1.027 2.565 1.41v.521c.019 2.968-.16 5.934-.534 8.879l-.078.46c-.308-.221-.573-.295-.747-.121-.768.776-1.245 5.747-1.302 8.038v.13c-.052.946-.304 2.073-.304 3.08-.026 1.462.434 2.694 2.8 2.798 2.939.121 15.578.316 22.345.433 3.647.074 7.196-1.183 9.984-3.535 1.241-1.063 2.192-2.243 2.222-3.357.061-.868-.404-1.679-1.697-2.391-.006.03-.015.059-.026.087-.17-.091-.352-.182-.552-.269l-6.51-1.019-11.069-5.644s-.065-3.418-1.393-2.85c-.396.082-.776.229-1.124.434-.065-.13-.135-.26-.2-.399-.901-1.79-1.369-3.766-1.367-5.77 0-.182 0-.364.026-.55.327-.294.634-.608.92-.942 0 0-.087-7.778.781-9.248.868-1.471 3.581-16.337 3.581-16.337s.087-2.763 1.832-4.407 1.133-6.394 1.133-6.394 2.439-1.301 3.225-5.531c.786-4.229 3.316-13.482 3.316-13.482s5.235-13.656 4.888-22.297c-.348-8.641.52-13.135.52-13.135l1.09-20.08v-.312c.434.334.725.598.725.598s0-.078 0-.217l.252.217s.555-9.109.368-12.723c3.039-1.037 7.701-2.741 7.961-3.609.395-1.301 5.643-5.379 5.643-5.379-.112-.021-.219-.062-.317-.121.165-.074.334-.165.516-.261 3.429-1.839 9.806-7.205 8.734-10.489l6.971-10.02c.221-.318.327-.702.301-1.088s-.183-.752-.445-1.038zm-56.792-9.743c-.169.003-.339.016-.507.039-.309-1.788-.745-3.552-1.303-5.279-.807-2.715-1.675-5.448-1.805-8.272 0-.122 0-.247 0-.369.014-.744.111-1.485.291-2.208.165.308.351.612.542.898 1.116 1.683 2.418 3.284 3.104 5.179.312.868.494 1.809.972 2.603.477.794 1.359 1.466 2.287 1.323.32-.051.62-.187.869-.394-1.247 2.313-2.738 4.486-4.45 6.48z" fill="url(#b)"/><path d="m421.698 212.08c-.503.312-1.061.524-1.645.624-2.17.061-3.906-5.747-3.906-5.747s.612-.621 1.584-1.488c2.878-2.555 8.92-7.279 11.75-4.638 3.164 2.963-4.085 9.249-7.783 11.249z" fill="#ecb4b6"/><path d="m389.07 350.61-7.921 8.546s-7.331.082-5.895-3.961c.282-.875.486-1.773.608-2.685.363-2.877.536-5.775.516-8.676 0-1.895-.03-3.223-.03-3.223s11.542-5.053 10.361.209c-.152.67-.234 1.355-.243 2.043-.008 1.948.438 3.871 1.302 5.617.364.751.8 1.464 1.302 2.13z" fill="#ecb4b6"/><path d="m389.07 350.61-7.921 8.546s-7.331.082-5.895-3.961c.282-.875.486-1.773.608-2.685 1.046.807 2.552 3.193 2.552 3.193s5.053 1.475 6.442-2.945c.781-2.473 2.005-3.696 2.938-4.295.355.755.782 1.475 1.276 2.147z" fill="#000" opacity=".1"/><path d="m407.444 363.481c-2.682 2.299-6.116 3.534-9.649 3.47-6.533-.095-18.742-.286-21.577-.403-3.794-.165-2.535-3.401-2.413-5.64 0-.078 0-.151 0-.225.043-2.23.508-7.071 1.25-7.808.742-.738 3.346 3.366 3.346 3.366s5.053 1.475 6.442-2.946c1.389-4.42 4.228-4.875 4.228-4.875 1.302-.556 1.349 2.776 1.349 2.776l10.7 5.518 6.276.989c.204.091.387.186.56.277 2.817 1.571 1.567 3.705-.512 5.501z" fill="#5843e4"/><path d="m387.673 354.987c.256 0 .464-.208.464-.464s-.208-.464-.464-.464c-.257 0-.465.208-.465.464s.208.464.465.464z" fill="#fff" opacity=".25"/><path d="m392.013 357.134c.257 0 .465-.207.465-.464 0-.256-.208-.464-.465-.464-.256 0-.464.208-.464.464 0 .257.208.464.464.464z" fill="#fff" opacity=".25"/><path d="m394.249 358.137c.256 0 .464-.208.464-.465 0-.256-.208-.464-.464-.464-.257 0-.465.208-.465.464 0 .257.208.465.465.465z" fill="#fff" opacity=".25"/><path d="m398.88 359.915c.257 0 .464-.208.464-.464s-.207-.464-.464-.464-.464.208-.464.464.207.464.464.464z" fill="#fff" opacity=".25"/><path d="m396.523 359.156c.257 0 .464-.208.464-.464 0-.257-.207-.464-.464-.464-.256 0-.464.207-.464.464 0 .256.208.464.464.464z" fill="#fff" opacity=".25"/><path d="m407.444 363.481c-2.682 2.299-6.116 3.534-9.649 3.47-6.533-.095-18.742-.286-21.577-.403-3.794-.165-2.535-3.401-2.413-5.64l23.812 1.475s9.753-1.479 10.335-4.381c2.821 1.549 1.571 3.683-.508 5.479z" fill="#5843e4"/><path d="m407.444 363.385c-2.686 2.29-6.119 3.516-9.649 3.445-6.533-.096-18.742-.282-21.577-.404-3.794-.165-2.535-3.401-2.413-5.639l23.812 1.471s9.753-1.48 10.335-4.382c2.821 1.579 1.571 3.713-.508 5.509z" fill="#fff" opacity=".25"/><path d="m363.114 329.138c-.877.712-1.679 1.513-2.392 2.39-2.361 2.746-5.282 6.854-6.732 8.932-.56.806-.903 1.301-.903 1.301l-3.16-.469s-3.411-5.205-3.368-5.344 2.696-5.726 2.696-5.726l1.028-1.201 3.238-3.783 1.463-1.709s10.995 3.544 8.13 5.609z" fill="#ecb4b6"/><path d="m353.99 340.46c-.56.806-.903 1.301-.903 1.301l-3.16-.469s-3.411-5.205-3.368-5.344 2.695-5.726 2.695-5.726l1.029-1.201.339.06h.798c-2.821 2.946.213 9.431.213 9.431s1.311.13 2.357 1.948z" fill="#000" opacity=".1"/><path d="m350.44 347.066s-2.11 4.546-3.247 7.158c-1.137 2.611-.716 4.507-.716 4.507-.081.338-.202.666-.361.976-.405.802-1.02 1.48-1.779 1.96-.76.481-1.636.746-2.535.768-.068.007-.136.007-.204 0-3.824-.099-5.048-11.244-5.048-11.244s.586-21.216 1.684-22.557c.15-.153.344-.257.556-.295 1.116-.192 2.255-.223 3.381-.091 3.472.248 7.943 1.102 7.943 1.102h.799c-2.822 2.946.208 9.431.208 9.431s1.35.126 2.405 2.021c1.054 1.896-3.086 6.264-3.086 6.264z" fill="#5843e4"/><path d="m345.817 341.219c.256 0 .464-.208.464-.464 0-.257-.208-.464-.464-.464-.257 0-.465.207-.465.464 0 .256.208.464.465.464z" fill="#fff" opacity=".25"/><path d="m345.587 344.893c.256 0 .464-.208.464-.464 0-.257-.208-.464-.464-.464-.257 0-.465.207-.465.464 0 .256.208.464.465.464z" fill="#fff" opacity=".25"/><path d="m345.817 359.629c-.521 1.028-1.737 2.533-4.315 2.728h-.178c-3.841-.099-5.065-11.243-5.065-11.243s.59-21.217 1.684-22.557c.15-.153.344-.256.556-.295 1.118-.193 2.258-.224 3.385-.092-.065 3.809-.243 15.868 0 17.066.243 1.197 2.405 11.183 3.933 14.393z" fill="#5843e4"/><path d="m346.099 359.707c-.405.802-1.02 1.48-1.78 1.961-.76.48-1.636.746-2.535.767-.068.007-.136.007-.204 0-3.841-.099-5.061-11.243-5.061-11.243s.59-21.217 1.684-22.558c.151-.152.345-.255.556-.294 1.118-.193 2.258-.224 3.385-.092-.065 3.809-.247 15.868 0 17.066.248 1.197 2.422 11.183 3.955 14.393z" fill="#fff" opacity=".25"/><path d="m341.324 362.357c-3.841-.099-5.065-11.243-5.065-11.243s.59-21.217 1.684-22.558c.15-.153.344-.256.556-.295.807 1.198 1.514 3.848.868 9.683-1.198 11.053.247 11.747.247 11.747s1.775 9.37 1.71 12.666z" fill="#5843e4"/><path d="m341.272 362.357c-3.854-.099-5.065-11.252-5.065-11.252s.59-21.217 1.684-22.557c.15-.153.344-.256.555-.295.808 1.197 1.511 3.848.868 9.682-1.198 11.053.248 11.747.248 11.747s1.797 9.379 1.71 12.675z" fill="#000" opacity=".1"/><path d="m421.698 212.08c-.503.312-1.061.524-1.645.624-2.17.061-3.906-5.747-3.906-5.747s.612-.621 1.584-1.488c.673 1.587 2.613 5.825 3.967 6.611z" fill="#000" opacity=".1"/><path d="m407.917 209.989s1.771.126 2.908-.633c1.137-.76 6.003-2.842 6.129-4.23 0 0 2.908 7.071 4.549 7.322 0 0-5.052 3.983-5.434 5.245s-10.236 4.338-10.236 4.338z" fill="#ff748e"/><path d="m407.917 209.989s1.771.126 2.908-.633c1.137-.76 6.003-2.842 6.129-4.23 0 0 2.908 7.071 4.549 7.322 0 0-5.052 3.983-5.434 5.245s-10.236 4.338-10.236 4.338z" fill="#5843e4"/><path d="m363.114 329.138c-.877.712-1.679 1.513-2.392 2.39-3.806-1.596-6.268-4.85-7.201-6.281l1.463-1.71s10.995 3.536 8.13 5.601z" fill="#000" opacity=".1"/><path d="m381.144 293.307s-6.181 8.242-8.438 9.179-19.098 21.555-19.098 21.555 3.611 6.676 10.287 7.747c0 0 3.624-1.431 4.97-4.628s11.958-12.211 11.958-12.211z" fill="#5e5a6b"/><path d="m381.144 293.307s-6.181 8.242-8.438 9.179-19.098 21.555-19.098 21.555 3.611 6.676 10.287 7.747c0 0 3.624-1.431 4.97-4.628s11.958-12.211 11.958-12.211z" fill="#000" opacity=".1"/><path d="m362.419 320.948c1.876.199 3.767.199 5.643 0 3.333-.317.803 1.705-5.643 0z" fill="#000" opacity=".1"/><path d="m360.904 323.095s4.423 2.525 6.129 1.262c1.706-1.262-1.645 1.219-6.129-1.262z" fill="#000" opacity=".1"/><path d="m386.705 340.841c-.15.664-.23 1.342-.239 2.022-3.416 3.097-7.527 2.143-10.096 1.011 0-1.896-.031-3.223-.031-3.223s11.546-5.071 10.366.19z" fill="#000" opacity=".1"/><path d="m407.179 230.997-.126 2.33-1.054 19.564s-.869 4.377-.508 12.796c.36 8.42-4.701 21.725-4.701 21.725s-2.444 9.014-3.203 13.139c-.76 4.125-3.117 5.388-3.117 5.388s.59 4.633-1.094 6.229-1.766 4.294-1.766 4.294-2.605 14.485-3.473 15.916c-.868 1.432-.759 9.01-.759 9.01-5.478 6.485-13.482.59-13.482.59l.082-20.293s2.279-18.692 3.963-21.303c1.684-2.612 1.684-9.769 1.684-9.769l-.751-16.671s-.599-1.769-.082-2.78c.516-1.011-1.441-3.778-1.441-3.778-4.718-5.727-5.391-18.61-4.024-21.139s5.465-12.628 5.465-12.628l5.643-3.288 10.187.304z" fill="#5e5a6b"/><path d="m383.211 330.231s1.332 4.611 2.404 5.114-2.404-5.114-2.404-5.114z" fill="#000" opacity=".1"/><path d="m385.042 314.883s3.473 2.725 4.901 2.716-4.901-2.716-4.901-2.716z" fill="#000" opacity=".1"/><path d="m405.834 200.892v5.557l-3.672-1.579-3.659-1.579-7.961-7.83s-6.298-4.09-9.671-7.808c-1.927-2.126-2.899-4.134-1.198-5.205.819-.539 1.56-1.189 2.201-1.931 1.695-1.995 3.17-4.168 4.397-6.481l.156-.282c1.641-3.01 2.722-5.578 2.722-5.578s4.618 1.479 7.591 3.574c.239.165.465.339.682.517 1.658 1.357 2.478 2.928.955 4.498-.394.407-.759.842-1.09 1.301-.247.34-.471.695-.673 1.063-.091.165-.178.33-.26.49-1.023 2.091-1.376 4.447-1.011 6.746z" fill="#ecb4b6"/><path d="m398.377 176.769c-.394.407-.759.842-1.09 1.302-.247.339-.471.694-.673 1.062-.091.165-.178.33-.26.491-1.948-.108-3.848-.644-5.564-1.571s-3.206-2.222-4.363-3.791c-.058-.072-.11-.146-.156-.221l.156-.282c1.641-3.011 2.722-5.579 2.722-5.579s4.618 1.479 7.591 3.575c.239.164.465.338.682.516 1.658 1.358 2.5 2.928.955 4.498z" fill="#000" opacity=".1"/><path d="m410.37 165.877c.002 1.742-.339 3.468-1.005 5.078s-1.643 3.073-2.876 4.305c-1.232 1.232-2.696 2.209-4.307 2.874s-3.338 1.007-5.082 1.004h-.056c-.143 0-.291 0-.434 0-2.539-.094-4.999-.914-7.085-2.364-2.087-1.45-3.713-3.467-4.685-5.814-.973-2.346-1.25-4.922-.801-7.422.45-2.499 1.609-4.817 3.338-6.678 1.73-1.86 3.958-3.186 6.419-3.818s5.052-.545 7.465.252 4.546 2.269 6.146 4.242 2.6 4.363 2.88 6.888c.054.482.081.967.083 1.453z" fill="#ecb4b6"/><path d="m398.841 198.662s6.685 3.77 4.97.59l-8.72-12.883 9.901 12.714s6.32 8.676 2.864 14.649c0 0-.507 4.972.083 6.147.59 1.176-.169 13.73-.169 13.73s-2.357-2.169-3.62-1.77c-1.264.399-10.196 1.18-10.196 1.18z" fill="#000" opacity=".1"/><path d="m407.179 230.997-.126 2.33c-.798-.582-1.914-1.232-2.652-.985-1.263.434-10.196 1.18-10.196 1.18l.413-2.898z" fill="#000" opacity=".1"/><path d="m399.093 198.662s6.684 3.77 4.97.59l-8.72-12.883 9.9 12.714s6.32 8.676 2.865 14.649c0 0-.503 4.972.083 6.147.586 1.176-.165 13.73-.165 13.73s-2.362-2.169-3.625-1.77-10.196 1.18-10.196 1.18z" fill="#464353"/><path d="m402.665 205.122c-.391 4.047-2.057 8.862-2.057 8.862s-1.177 11.96-2.696 15.499c-1.519 3.54-.842 8.42-1.684 17.43-.304 3.24-1.35 5.47-2.761 6.975-2.318 2.473-5.642 2.989-8.247 2.837-.212 0-.434-.026-.62-.047-4.215-.434-8.247-20.714-8.247-20.714s-1.936-17.26-1.181-19.62-.755-15.829-1.263-18.779c-.321-1.865.647-4.919 1.393-6.902.434-1.149.799-1.939.799-1.939s1.432-4.546 3.789-6.901c.325-.334.714-.599 1.143-.779.43-.18.891-.272 1.357-.271 1.109.041 2.187.378 3.121.976l.109.074s15.335 15.66 16.767 19.282c.391 1.006.43 2.455.278 4.017z" fill="#000" opacity=".1"/><path d="m402.162 204.87c-.391 4.047-2.058 8.862-2.058 8.862s-1.18 11.96-2.695 15.495c-1.515 3.536-.868 8.42-1.684 17.43-.304 3.245-1.35 5.474-2.761 6.98-2.322 2.472-5.643 2.989-8.247 2.837l-.616-.048c-4.215-.434-8.248-20.713-8.248-20.713s-1.935-17.265-1.176-19.621c.76-2.355-.759-15.829-1.263-18.779-.321-1.865.643-4.919 1.393-6.905.434-1.146.795-1.935.795-1.935s1.432-4.546 3.793-6.906c.325-.332.713-.596 1.142-.776.429-.179.889-.271 1.354-.269 1.11.04 2.189.377 3.125.976l.109.069s15.335 15.664 16.763 19.282c.382 1.032.425 2.459.274 4.021z" fill="#5843e4"/><path d="m384.982 266.516s-3.473 3.093-4.68 2.967c-1.206-.126 4.68-2.967 4.68-2.967z" fill="#000" opacity=".1"/><path d="m385.906 269.483s-3.663 1.7-4.775 1.952c-1.111.252 3.36-2.39 4.775-1.952z" fill="#000" opacity=".1"/><path d="m400.082 222.998s5.435.061 6.255 1.766c.82 1.704-4.484-2.46-6.255-1.766z" fill="#000" opacity=".1"/><path d="m399.323 225.965s4.171.868 5.434 1.896-5.434-1.896-5.434-1.896z" fill="#000" opacity=".1"/><path d="m392.313 215.671s-.504 17.113-2.37 19.326c-1.867 2.212 2.37-19.326 2.37-19.326z" fill="#000" opacity=".1"/><path d="m387.634 264.048s-3.473 15.091 3.511 16.05c6.984.958 4.831-17.178 4.831-17.178z" fill="#000" opacity=".1"/><path d="m387.382 263.792s-3.473 15.096 3.507 16.05 4.835-17.178 4.835-17.178z" fill="#ecb4b6"/><path d="m393.355 200.432c-.361-9.07-13.061-10.944-16.026-2.364-.021.057-.039.113-.06.174-1.936 5.808-1.094 20.518-1.094 20.518s.251 9.877 1.18 13.161 3.538 12.715 3.538 14.233 2.422 7.326 3.442 7.747 1.537 3.705 1.784 4.295 1.011 8.242 1.011 8.242 9.519-.59 9.688-2.104c.17-1.514-2.105-8.919-2.105-8.919s-1.68-3.036-1.892-5.474c-.213-2.438-1.563-3.536-1.302-5.206.26-1.67-.76-2.529-.76-3.622s-.755-4.043-.755-4.043-1.602-1.262-1.35-2.776-2.275-4.546-1.602-5.639.842-3.787.842-3.787.842-12.146 1.433-15.413c.59-3.266 4.045-8.584 4.045-8.584s-.009-.17-.017-.439z" fill="#000" opacity=".1"/><path d="m392.977 253.637c-2.322 2.472-5.643 2.988-8.247 2.837-.3-1.15-.743-2.56-1.389-2.829-1.02-.433-3.442-6.229-3.442-7.743s-2.605-10.949-3.538-14.232c-.933-3.284-1.181-13.162-1.181-13.162s-.868-14.709 1.081-20.531c0-.061.035-.117.057-.178 2.964-8.58 15.665-6.702 16.025 2.369v.433s-3.472 5.306-4.041 8.59c-.569 3.283-1.437 15.408-1.437 15.408s-.169 2.698-.842 3.791 1.854 4.125 1.602 5.639 1.345 2.777 1.345 2.777.76 2.945.76 4.043c0 1.097 1.011 1.934.76 3.622-.252 1.687 1.098 2.776 1.302 5.205.191 1.373.59 2.708 1.185 3.961z" fill="#000" opacity=".1"/><path d="m392.847 200.181c-.361-9.071-13.057-10.949-16.021-2.369 0 .061-.044.117-.061.178-1.936 5.809-1.094 20.518-1.094 20.518s.252 9.878 1.176 13.162c.925 3.283 3.542 12.723 3.542 14.232 0 1.51 2.418 7.323 3.442 7.743 1.025.421 1.537 3.709 1.784 4.295.248.585 1.007 8.242 1.007 8.242s9.523-.59 9.688-2.108c.165-1.519-2.105-8.923-2.105-8.923s-1.675-3.037-1.892-5.475-1.563-3.535-1.302-5.205c.26-1.67-.76-2.529-.76-3.622 0-1.094-.76-4.043-.76-4.043s-1.601-1.263-1.345-2.777-2.279-4.55-1.602-5.639.842-3.787.842-3.787.842-12.146 1.433-15.412c.59-3.267 4.045-8.589 4.045-8.589s-.004-.152-.017-.421z" fill="#5843e4"/><path d="m377.208 223.501c.251-.251 5.056-5.557 6.571-3.661s-6.571 3.661-6.571 3.661z" fill="#000" opacity=".1"/><path d="m377.65 227.605c.187-.187 4.801-.377 5.938-2.967s-5.938 2.967-5.938 2.967z" fill="#000" opacity=".1"/><g fill="#000" opacity=".1"><path d="m372.394 181.059c.114.133.2.288.252.456.094-.289.121-.596.077-.897-.043-.301-.156-.588-.329-.838-.226-.261-.556-.412-.76-.686 0-.021-.026-.047-.043-.073-.114.205-.171.438-.163.674.008.235.079.464.206.662.204.269.534.425.76.702z" opacity=".1"/><path d="m378.823 164.675c0-.481.021-.959 0-1.431-.092-1.736-.408-3.471-.482-5.206-.1 2.108.369 4.338.482 6.468z" opacity=".1"/></g><path d="m423.539 208.471.26.182c-.227-.158-.383-.399-.434-.671-.05-.273.009-.554.165-.782l11.72-16.988c.077-.112.177-.208.292-.282.115-.075.243-.126.378-.15.134-.025.272-.023.406.006s.261.084.373.162l-.256-.182c.182.124.337.283.457.467.121.185.203.391.243.607.041.217.038.439-.008.654-.045.215-.133.42-.258.601l-10.99 15.946c-.125.184-.285.341-.471.462s-.395.204-.613.244c-.219.04-.443.036-.66-.011-.217-.048-.422-.138-.604-.265z" fill="#464353"/><path d="m436.478 189.766.279.192-12.892 18.705-.279-.192c-.165-.113-.278-.288-.315-.485-.036-.197.008-.4.121-.565l12.026-17.447c.055-.084.126-.157.21-.213s.177-.095.276-.114c.099-.02.201-.019.299.002.099.02.192.06.275.117z" fill="#9f9eff"/><path d="m435.126 192.383-.054-.037c-.034-.023-.08-.014-.103.019l-.967 1.404c-.023.034-.015.08.019.103l.053.037c.034.023.08.014.103-.019l.968-1.404c.023-.034.014-.08-.019-.103z" fill="#464353"/><path d="m412.036 164.254c-.187-.906-.929-1.57-1.441-2.342-1.276-1.922-1.076-4.464-.482-6.693.219-.609.312-1.255.274-1.9-.085-.408-.254-.794-.496-1.133-.243-.339-.552-.624-.911-.837-1.567-1.028-3.576-1.041-5.334-1.692-2.557-.945-4.87-3.275-7.535-2.711-1.459.308-2.579 1.436-3.837 2.23-1.392.876-2.992 1.366-4.636 1.418-1.38.044-2.774-.225-4.132 0-.244.044-.484.109-.717.196-1.155-.393-2.369-.587-3.589-.573-1.198-.028-2.376.301-3.386.946-1.836 1.301-2.326 3.795-2.296 6.038s.408 4.555-.282 6.689c-.868 2.659-3.264 4.685-3.75 7.435-.33 1.87.286 3.757.837 5.574 1.58 5.206 2.626 10.984.53 16.02-.534 1.276-1.333 2.538-2.604 3.123l4.453-.264c.048.314.034.635-.042.944-.077.309-.213.6-.402.856-.188.256-.426.473-.698.637-.272.165-.575.274-.889.322 1.123-.071 2.227-.324 3.268-.751.52-.216.979-.556 1.339-.99.359-.434.607-.949.723-1.5.087-.603-.044-1.232.126-1.813.29-1.002 1.302-1.553 2.148-2.195 2.171-1.692 3.204-4.542 3.286-7.296.083-2.755-.647-5.462-1.428-8.108s-1.619-5.305-1.736-8.06c-.051-1.007.043-2.016.278-2.997.16.299.338.594.525.868 1.076 1.639 2.335 3.197 2.995 5.045.233.875.547 1.728.937 2.546.46.781 1.302 1.427 2.21 1.301.907-.126 1.567-1.106 1.866-2.026.3-.919.434-1.921.985-2.706 1.059-1.484 3.178-1.618 5.001-1.562 3.841.121 9.141.703 12.153-2.247.573-.56.868-1.414 1.737-1.206.798.186 1.245 1.488 2.1 1.779 1.398.481 3.169-.82 2.852-2.365z" fill="#000" opacity=".1"/><path d="m412.036 163.764c-.187-.906-.929-1.574-1.441-2.342-1.276-1.926-1.076-4.468-.482-6.694.219-.608.312-1.254.274-1.9-.085-.407-.254-.793-.496-1.132-.243-.339-.552-.624-.911-.837-1.567-1.028-3.576-1.045-5.334-1.692-2.557-.945-4.87-3.275-7.535-2.711-1.459.308-2.579 1.436-3.837 2.23-1.393.874-2.993 1.364-4.636 1.418-1.38.044-2.774-.225-4.132 0-.244.044-.484.109-.717.195-1.155-.393-2.369-.586-3.589-.572-1.197-.027-2.375.301-3.386.941-1.836 1.301-2.326 3.8-2.296 6.043s.408 4.555-.282 6.689c-.868 2.659-3.264 4.685-3.75 7.435-.33 1.87.286 3.757.837 5.574 1.58 5.206 2.626 10.984.53 16.016-.534 1.279-1.333 2.542-2.604 3.127l4.453-.264c.048.314.034.635-.043.943-.076.309-.212.599-.401.855-.188.256-.426.472-.698.636-.273.164-.575.273-.889.32 1.123-.067 2.227-.319 3.268-.746.52-.217.979-.557 1.339-.99.359-.434.607-.949.723-1.5.087-.603-.044-1.232.126-1.813.29-1.002 1.302-1.553 2.148-2.195 2.171-1.692 3.204-4.542 3.286-7.296.083-2.755-.647-5.466-1.428-8.108s-1.619-5.305-1.736-8.06c-.051-1.007.043-2.016.278-2.997.16.299.338.594.525.867 1.076 1.64 2.335 3.197 2.995 5.045.232.875.546 1.726.937 2.542.46.781 1.302 1.432 2.21 1.302.907-.13 1.567-1.102 1.866-2.022.3-.919.434-1.921.985-2.707 1.059-1.483 3.178-1.618 5.001-1.561 3.841.121 9.141.703 12.153-2.247.573-.56.868-1.414 1.737-1.206.798.186 1.245 1.488 2.1 1.778 1.398.482 3.169-.819 2.852-2.364z" fill="#464353"/><g fill="#000" opacity=".1"><path d="m373.531 155.856v.868c0 .937.078 1.887.113 2.828.039-1.215-.07-2.459-.113-3.696z" opacity=".1"/><path d="m372.012 185.358c.117-3.47-.673-7.049-1.689-10.411-.408-1.204-.698-2.444-.868-3.704-.186 1.735.374 3.47.868 5.179.941 2.895 1.509 5.898 1.689 8.936z" opacity=".1"/><path d="m409.679 157.175c.072-.827.217-1.646.434-2.447.219-.608.313-1.254.274-1.9-.018-.113-.046-.225-.083-.334-.052.256-.121.508-.191.759-.368 1.273-.515 2.6-.434 3.922z" opacity=".1"/><path d="m372.715 193.834-2.691.157c-.435.674-1.044 1.22-1.762 1.579l4.201-.248c.253-.452.342-.978.252-1.488z" opacity=".1"/><path d="m411.919 163.382c-.23.504-.632.91-1.134 1.144-.502.235-1.071.283-1.605.136-.868-.291-1.302-1.592-2.101-1.778-.868-.209-1.163.65-1.736 1.21-3.008 2.945-8.308 2.364-12.153 2.243-1.823-.057-3.942.078-5.001 1.561-.564.785-.69 1.792-.985 2.711-.295.92-.912 1.874-1.866 2.022-.955.147-1.737-.508-2.21-1.302-.39-.816-.704-1.667-.937-2.542-.66-1.848-1.919-3.409-2.995-5.049-.187-.277-.365-.572-.526-.867-.235.982-.328 1.993-.277 3.001v.213c.034-.585.121-1.166.26-1.735.161.299.339.594.525.867 1.077 1.64 2.335 3.197 2.995 5.045.232.875.546 1.726.938 2.542.46.781 1.302 1.432 2.209 1.302s1.567-1.102 1.867-2.022c.299-.919.434-1.921.985-2.707 1.059-1.483 3.177-1.618 5-1.561 3.842.121 9.141.702 12.154-2.247.573-.56.868-1.414 1.736-1.206.799.186 1.246 1.488 2.101 1.778 1.402.473 3.173-.828 2.856-2.373-.025-.13-.058-.259-.1-.386z" opacity=".1"/><path d="m378.288 189.34c-.824.642-1.857 1.193-2.148 2.195-.17.586-.039 1.211-.126 1.814-.115.551-.363 1.067-.722 1.502-.36.434-.819.775-1.34.992-.411.188-.84.334-1.28.434-.121.459-.373.872-.727 1.189-.353.317-.792.523-1.261.594 1.123-.068 2.227-.32 3.268-.747.52-.216.979-.556 1.339-.99.359-.434.607-.948.723-1.5.087-.603-.044-1.232.126-1.813.291-1.002 1.302-1.553 2.148-2.195 2.171-1.692 3.204-4.542 3.286-7.296 0-.412 0-.82 0-1.228-.156 2.672-1.185 5.41-3.286 7.049z" opacity=".1"/></g><path d="m197.712 355.187h.1s-15.938-43.197-20.4-49.066c0 0-4.675-2.729-4.462-7.34l-5.734-27.493s.086-.083.23-.239l.121-.134c.044-.048.091-.1.139-.161.766-.888 1.407-1.876 1.906-2.937.03-.069.065-.134.095-.204.213-.481.392-.977.534-1.483.401.139.84.116 1.224-.065 0 0 0-.148 0-.412 0 0-.056-1.627-.061-4.169 0-.711 0-1.484 0-2.303.186-.66.338-1.329.456-2.005l-.234-.108c0-.035 0-.065.021-.1l-.195-.091c.156-6.03.677-13.734 2.17-18.982.052-.187.104-.369.161-.551 1.771-5.731 1.81-12.728 2.266-18.653.358.742.665 1.507.92 2.29.225-.249.485-.464.772-.638l1.78 14.059v16.563s-2.978 21.39 6.372 17.408c9.35-3.983 2.552-18.653 2.552-18.653s0-8.177 1.276-12.372c.838-2.759.296-11.712-.173-17.477.894.16 1.445.286 1.445.286.208-.841.301-1.706.278-2.573.191-9.664-11.889-25.246-16.815-31.189-1.41-2.123-3.371-3.823-5.673-4.919l-9.45-4.516s-4.449-1.106-6.185-4.49c0-.056-.031-.117-.044-.177.196-.087.391-.178.582-.278 1.438-.685 2.701-1.688 3.694-2.933 2.014-2.524 2.973-5.686 3.906-8.766 1.081-3.618 2.171-7.318 2.027-11.092-.143-3.774-1.736-7.696-4.996-9.7-2.773-1.709-6.636-2.034-8.355-4.772-.465-.737-.747-1.613-1.367-2.212.005-.126-.037-.25-.117-.349-.08-.098-.193-.163-.317-.184l-4.818-.929c-.136-.025-.275.003-.39.079-.114.076-.194.194-.222.329v.065c-4.252.117-8.425 1.163-12.228 3.067-1.348.648-2.643 1.402-3.872 2.256-1.736 1.223-3.472 2.837-3.715 4.936-.126 1.046.13 2.117-.087 3.141-.573 2.741-4.293 4.524-3.75 7.27.364 1.865 2.504 2.668 4.505 2.672-.37 1.306-.559 2.656-.56 4.013.018 3.443 1.224 6.774 3.416 9.431 2.191 2.656 5.234 4.475 8.612 5.148 1.457 2.022 2.734 4.167 3.815 6.412-2.448 2.295-7.574 7.622-4.431 9.413l-6.511 15.938.634 16.436-2.757 2.433.604.746c-3.086 3.549-10.24 11.309-15.466 13.374-.749.298-1.474.652-2.17 1.059-.958.598-2.022 1.009-3.134 1.21-.486.049-.966.141-1.437.273l-1.245-2.555c-.218-.443-.601-.783-1.068-.946-.466-.162-.978-.134-1.424.079l-.7638.364-1.8186.868-.7553.36-.5773.273c-.2194.103-.4162.249-.5788.43-.1626.18-.2879.39-.3686.619-.0807.228-.1153.471-.1017.713s.0751.479.181.697l1.5105 3.093c-2.1486 1.87-3.199 4.104-.2734 6.178 1.1356.818 2.5069 1.244 3.906 1.214l.921 1.878c.216.444.599.783 1.065.946.465.162.977.134 1.422-.078l1.332-.633 2.605-1.228c.219-.103.416-.248.579-.427.163-.18.289-.39.37-.619.08-.228.115-.471.101-.713s-.076-.478-.182-.696l-.755-1.549c1.687-1.293 3.235-2.758 4.618-4.372 0 0 3.876-2.399 6.159-2.933 1.515-.355 6.832-3.795 10.105-5.973l.933 24.214c-.209.314-.451.604-.72.868l.733-.512v.178c-.108.121-.212.234-.317.334l.317-.226v.291c-.101.125-.211.242-.33.351l.335-.234.095 2.516 1.602-2.603.1 2.603.373-.612c-4.488 7.526-10.335 18.605-13.456 29.758 0 0-4.883 8.385-4.249 16.983l-8.985 42.555.173.065c-2.912 2.069-9.0324 5.865-15.044 6.016 0 0-14.4497-.433-10.4174 2.725 4.0324 3.158 39.9334 7.76 39.9334 7.76l1.38-10.602.321.117s0-.06-.021-.164l.434.164s-.868-5.244 2.335-8.176c3.203-2.933 10.626-32.713 9.983-37.306 0 0 5.704-14.068 12.844-25.286l8.403 21.303 9.35 15.938s12.435 27.285 12.036 33.367c-2.604 3.149-7.283 8.081-10.76 7.938 0 0-14.237 2.729-4.462 5.245s38.457-6.941 38.457-6.941zm-62.248-97.564.087-.047c-.434.672-.916 1.422-1.428 2.242z" fill="url(#c)"/><path d="m129.297 260.838c-.352.247-.543.39-.543.39.199-.103.382-.234.543-.39z" fill="url(#d)"/><path d="m129.722 261.254-.543.395c.2-.104.383-.238.543-.395z" fill="url(#e)"/><path d="m129.722 260.838c-.352.247-.543.39-.543.39.2-.103.382-.234.543-.39z" fill="url(#f)"/><path d="m178.341 355.794s-7.458 10.558-12.427 10.35c0 0-13.89 2.69-4.341 5.175 9.549 2.486 37.498-6.832 37.498-6.832l-3.325-10.845z" fill="#333"/><path d="m144.988 282.505 10.56 27.121 9.116 15.733s12.535 27.845 11.719 33.229l19.967-3.21s-15.535-42.646-19.884-48.442c0 0-4.558-2.694-4.341-7.248l-5.591-27.099s5.439-5.245 2.401-11.817c-.162-.348-.342-.689-.539-1.019-4.14-7.036-19.884-3.106-19.884-3.106z" fill="#535461"/><path d="m144.988 282.505 10.56 27.121 9.116 15.733s12.535 27.845 11.719 33.229l19.967-3.21s-15.535-42.646-19.884-48.442c0 0-4.558-2.694-4.341-7.248l-5.591-27.099s5.439-5.245 2.401-11.817c-.162-.348-.342-.689-.539-1.019-4.14-7.036-19.884-3.106-19.884-3.106z" fill="#000" opacity=".03"/><path d="m176.479 306.936s-4.558-2.693-4.341-7.248l-5.604-27.099s5.439-5.245 2.401-11.816c-.162-.349-.341-.69-.539-1.02-2.009-3.414-6.745-4.247-11.094-4.199 4.171.039 8.56.95 10.474 4.199.197.329.375.67.534 1.02 3.038 6.571-2.396 11.816-2.396 11.816l5.59 27.12c-.204 4.555 4.341 7.249 4.341 7.249 4.34 5.796 19.884 48.441 19.884 48.441l-19.346 3.08v.1l19.967-3.21s-15.522-42.637-19.871-48.433z" fill="#000" opacity=".01"/><path d="m108.323 351.239s-8.286 7.036-16.3641 7.245c0 0-14.0851-.434-10.1525 2.693 3.9325 3.128 38.9476 7.657 38.9476 7.657l1.558-12.09z" fill="#333"/><path d="m138.776 254.973s-13.672 19.251-19.059 38.711c0 0-4.775 8.281-4.141 16.77l-8.703 42.026 15.952 5.999s-.829-5.175 2.279-8.073c3.107-2.897 10.356-32.295 9.736-36.85 0 0 9.944-24.843 19.888-34.573s14.888-11.977 16.351-20.388c0 .013-23.396-11.283-32.303-3.622z" fill="#000" opacity=".01"/><path d="m138.36 254.973s-13.673 19.251-19.055 38.711c0 0-4.775 8.281-4.146 16.77l-8.681 42.026 15.93 5.999s-.825-5.175 2.279-8.073c3.103-2.897 10.361-32.295 9.736-36.85 0 0 9.944-24.843 19.888-34.573s14.893-11.977 16.355-20.388c0 .013-23.4-11.283-32.306-3.622z" fill="#535461"/><path d="m147.193 252.105c10.269.122 23.057 6.299 23.057 6.299-1.463 8.398-6.411 10.645-16.351 20.388s-19.889 34.573-19.889 34.573c.621 4.555-6.628 33.953-9.735 36.85-2.705 2.525-2.427 6.772-2.31 7.83l.651.243s-.829-5.175 2.279-8.073c3.108-2.897 10.357-32.295 9.736-36.85 0 0 9.944-24.843 19.889-34.573 9.944-9.73 14.892-11.977 16.35-20.388 0 0-13.312-6.429-23.677-6.299z" fill="#000" opacity=".01"/><path d="m128.203 224.95s-9.888 12.307-16.564 14.979c-.733.294-1.444.642-2.127 1.041-.927.589-1.958.995-3.038 1.197-.799.075-1.581.28-2.314.608-3.472 1.596-11.4716 5.916-6.1891 9.712 6.6281 4.772 15.5351-6.212 15.5351-6.212s3.78-2.368 6.007-2.897c2.227-.53 12.427-7.661 12.427-7.661z" fill="#ecb4b6"/><path d="m130.074 222.469-3.937 3.518 5.799 7.244z" fill="#5843e4"/><path d="m130.074 222.469-3.937 3.518 5.799 7.244z" fill="#000" opacity=".01"/><path d="m140.048 181.268s-9.427 8.077-5.478 10.354l-6.367 15.734 2.192 57.55 8.989-14.905-6.142-32.295s-1.736-19.252 3.29-23.806l4.823-9.544z" fill="#5843e4"/><path d="m141.294 178.383s-9.428 8.077-5.482 10.354l-6.359 15.747 2.192 57.551 8.989-14.905-6.137-32.309s-1.737-19.251 3.285-23.806l4.827-9.543z" fill="#000" opacity=".01"/><path d="m132.769 172.783s7.665 9.313 7.457 14.696c-.208 5.384 14.502-9.313 14.502-9.313s-5.595-6.832-4.145-14.081c1.449-7.248-17.814 8.698-17.814 8.698z" fill="#ecb4b6"/><path d="m176.479 219.571 2.074 16.58v16.354s-2.899 21.116 6.216 17.182c9.115-3.935 2.465-18.44 2.465-18.44s0-8.078 1.246-12.216-.621-22.362-.621-22.362z" fill="#ecb4b6"/><path d="m148.095 180.443s-5.568 5.388-8.49 3.518l-3.976 9.878c-2.43 6.041-3.533 12.534-3.233 19.039l1.406 37.332 6.216-.829 2.074-35.401 3.108-21.529z" fill="#f2f2f2"/><path d="m152.757 174.748s-7.353 5.071-9.423 9.422c0 0-.208 4.771-1.866 6.832-1.659 2.06-3.312 12.419-3.729 24.843s-2.279 28.981-2.279 28.981-3.108 16.15-6.419 17.786c0 0 15.326-11.591 22.783-7.657 7.457 3.935 15.952 13.448 18.439 12.008 0 0-.599-18.146 2.118-27.824.052-.182.104-.364.161-.542 2.899-9.522 1.037-22.557 4.34-28.153 0 0 0-10.12-1.91-17.677-.494-1.929-1.405-3.727-2.669-5.268-1.263-1.541-2.848-2.787-4.645-3.65l-9.201-4.442s-4.871-.725-5.7-4.659z" fill="#000" opacity=".01"/><path d="m152.757 174.748s-6.945 5.487-9.011 9.834c0 0-.208 4.771-1.862 6.832-1.654 2.06-3.316 12.424-3.728 24.843-.413 12.419-2.279 29.003-2.279 29.003s-3.108 16.146-6.424 17.786c0 0 15.331-11.596 22.788-7.661 7.457 3.934 15.951 13.447 18.434 12.007 0 0-.594-18.141 2.123-27.819.052-.186.104-.364.156-.542 2.904-9.543 1.037-22.557 4.341-28.157 0 0 0-10.121-1.915-17.673-.493-1.93-1.403-3.729-2.665-5.271-1.263-1.541-2.848-2.788-4.644-3.652l-9.215-4.459s-5.27-1.137-6.099-5.071z" fill="#000" opacity=".01"/><path d="m152.653 174.644s-6.836 5.175-8.907 9.543c0 0-.208 4.772-1.862 6.832-1.654 2.061-3.316 12.42-3.728 24.843-.413 12.424-2.279 28.964-2.279 28.964s-3.108 16.15-6.424 17.786c0 0 15.331-11.591 22.788-7.657 7.457 3.935 15.951 13.448 18.434 12.008 0 0-.594-18.146 2.123-27.824l.156-.542c2.904-9.521 1.037-22.557 4.341-28.153 0 0 0-10.12-1.915-17.677-.493-1.929-1.403-3.728-2.665-5.268-1.263-1.541-2.848-2.787-4.644-3.65l-9.215-4.46s-4.649-1.123-6.203-4.745z" fill="#5843e4"/><path d="m171.608 186.755s21.026 23.91 18.126 35.297c0 0-10.773-2.481-13.672.829 0 0-2.279-7.661-9.116-12.007-6.836-4.347-13.134-32.192 4.662-24.119z" fill="#000" opacity=".01"/><path d="m171.608 186.343s21.026 23.91 18.126 35.297c0 0-10.773-2.485-13.672.829 0 0-2.279-7.661-9.116-12.007-6.836-4.347-13.134-32.196 4.662-24.119z" fill="#5843e4"/><path d="m151.099 168.744c-.325-1.67-.052-1.796.313-3.622 1.449-7.244-17.797 8.676-17.797 8.676s1.073 1.301 2.401 3.218c.981.203 1.98.305 2.982.304 5.265.017 9.506-4.425 12.101-8.576z" fill="#000" opacity=".01"/><path d="m138.151 176.296c8.122 0 14.706-6.58 14.706-14.696 0-8.117-6.584-14.697-14.706-14.697-8.121 0-14.705 6.58-14.705 14.697 0 8.116 6.584 14.696 14.705 14.696z" fill="#ecb4b6"/><path d="m124.939 157.578c-2.171.291-4.927-.433-5.344-2.576-.525-2.707 3.099-4.473 3.659-7.175.213-1.015-.039-2.074.083-3.102.243-2.073 1.918-3.67 3.624-4.871 5.404-3.79 11.978-5.541 18.552-4.941.82.009 1.619.261 2.296.724.716.59.99 1.54 1.476 2.325 1.68 2.712 5.443 3.037 8.147 4.72 3.164 1.974 4.727 5.848 4.87 9.574s-.92 7.374-1.975 10.953c-.894 3.036-1.832 6.16-3.794 8.65-1.961 2.49-5.208 4.234-8.303 3.47 1.415-1.019.391-3.379-1.142-4.208-1.532-.828-3.429-.971-4.735-2.112-1.307-1.141-1.702-3.015-2.131-4.716-.539-2.169-1.303-4.337-2.882-5.895-3.061-3.062-8.625-1.327-12.401-.82z" fill="#000" opacity=".01"/><path d="m125.355 157.37c-2.17.295-4.926-.434-5.347-2.572-.526-2.711 3.099-4.473 3.663-7.179.208-1.016-.043-2.07.078-3.102.243-2.074 1.923-3.666 3.629-4.872 5.403-3.788 11.975-5.538 18.547-4.94.821.01 1.62.264 2.296.728.716.586.994 1.536 1.48 2.321 1.676 2.711 5.443 3.037 8.148 4.72 3.16 1.974 4.727 5.852 4.865 9.574.139 3.721-.92 7.374-1.97 10.953-.899 3.036-1.832 6.164-3.798 8.654s-5.209 4.229-8.299 3.47c1.41-1.015.386-3.379-1.142-4.208-1.528-.828-3.429-.967-4.74-2.112s-1.701-3.015-2.127-4.715c-.538-2.148-1.302-4.338-2.882-5.891-3.077-3.072-8.629-1.336-12.401-.829z" fill="#464353"/><path d="m147.032 142.452 1.333-6.819c.012-.066.012-.133-.002-.198-.013-.066-.039-.128-.077-.183-.037-.055-.085-.102-.141-.139s-.118-.062-.184-.074l-4.696-.916c-.066-.013-.133-.013-.198 0-.066.013-.128.039-.183.076s-.103.085-.14.14c-.036.056-.062.118-.074.183l-1.333 6.815-4.553 16.831 8.347 1.636z" fill="#5843e4"/><g fill="#000" opacity=".1"><path d="m123.511 148.161c.306-.465.526-.981.651-1.523.208-1.015-.044-2.073.078-3.101.045-.367.134-.726.265-1.072-.402.619-.66 1.32-.756 2.052-.121 1.032.131 2.086-.082 3.102-.036.184-.089.366-.156.542z" opacity=".1"/><path d="m157.436 170.67c-1.931 2.455-5.122 4.173-8.16 3.509-.083.386-.308.726-.629.955 3.082.75 6.337-.989 8.299-3.471.737-.951 1.357-1.986 1.849-3.084-.389.737-.843 1.436-1.359 2.091z" opacity=".1"/><path d="m149.298 174.01c1.159-1.076.16-3.271-1.302-4.064-1.533-.829-3.429-.972-4.74-2.113s-1.702-3.015-2.127-4.72c-.538-2.147-1.302-4.337-2.882-5.89-3.078-3.076-8.629-1.341-12.401-.833-2.17.29-4.927-.434-5.343-2.577-.099-.506-.057-1.03.121-1.514-.262.356-.451.759-.557 1.188s-.126.874-.059 1.311c.434 2.143 3.181 2.867 5.347 2.572 3.772-.507 9.324-2.243 12.401.837 1.563 1.566 2.344 3.744 2.882 5.891.434 1.701.803 3.562 2.127 4.715 1.324 1.154 3.208 1.302 4.74 2.113 1.098.59 1.927 1.978 1.793 3.084z" opacity=".1"/></g><path d="m140.122 169.156c4.003 0 7.248-3.243 7.248-7.244s-3.245-7.244-7.248-7.244c-4.004 0-7.249 3.243-7.249 7.244s3.245 7.244 7.249 7.244z" fill="#000" opacity=".01"/><path d="m140.122 169.364c4.003 0 7.248-3.243 7.248-7.244s-3.245-7.244-7.248-7.244c-4.004 0-7.249 3.243-7.249 7.244s3.245 7.244 7.249 7.244z" fill="#5843e4"/><path d="m140.122 166.866c2.623 0 4.749-2.125 4.749-4.746s-2.126-4.745-4.749-4.745c-2.622 0-4.748 2.124-4.748 4.745s2.126 4.746 4.748 4.746z" fill="#333"/><path d="m140.122 163.569c.801 0 1.45-.649 1.45-1.449s-.649-1.449-1.45-1.449-1.45.649-1.45 1.449.649 1.449 1.45 1.449z" fill="#5843e4"/><path d="m147.153 141.847-5.691-1.111-.04.204 5.691 1.111z" fill="#000" opacity=".05"/><path d="m99.8222 239.846-1.388.669c-1.3691.66-1.9438 2.304-1.2837 3.672l5.0765 10.523c.66 1.368 2.305 1.942 3.674 1.282l1.388-.668c1.369-.66 1.944-2.304 1.284-3.672l-5.077-10.523c-.66-1.368-2.305-1.942-3.6738-1.283z" fill="#cbdae3"/><path d="m101.734 238.925-5.2118 2.511c-.3131.151-.4445.527-.2935.84l6.9203 14.344c.151.313.527.445.84.294l5.212-2.512c.313-.15.444-.526.293-.839l-6.92-14.345c-.151-.313-.527-.444-.84-.293z" fill="#535461"/><path d="m102.4 238.605-5.2468 2.528c-.3541.171-.5028.596-.3321.95l6.8489 14.196c.17.354.596.502.95.332l5.247-2.528c.354-.171.503-.596.332-.95l-6.848-14.196c-.171-.354-.597-.503-.951-.332z" fill="#5843e4"/><path d="m102.785 239.799-4.9342 2.377 5.6682 11.75 4.934-2.378z" fill="#f2f2f2"/><path d="m107.071 254.745c.308-.148.398-.603.199-1.015-.199-.413-.611-.626-.919-.477-.309.148-.398.603-.199 1.015.198.413.61.626.919.477z" fill="#f2f2f2"/><path d="m144.87 241.742c2.915.033 5.799.6 8.508 1.675 4.34 1.761 8.937 0 8.937 0s-13.091-3.796-17.445-1.675z" fill="#000" opacity=".01"/><path d="m294.286 319.972s2.699 3.526-1.246 8.853c-3.946 5.327-7.197 9.821-5.882 13.14 0 0 5.951-9.891 10.795-10.029 4.845-.139 1.663-6.017-3.667-11.964z" fill="#5843e4"/><path d="m294.286 319.972c.235.34.421.713.551 1.106 4.727 5.548 7.249 10.727 2.704 10.845-4.232.121-9.311 7.686-10.526 9.595.039.147.087.292.143.434 0 0 5.951-9.891 10.795-10.029 4.844-.139 1.663-6.004-3.667-11.951z" fill="#000" opacity=".1"/><path d="m299.303 324.466c0 1.245-.139 2.251-.308 2.251s-.312-1.006-.312-2.251.173-.655.347-.655c.173 0 .273-.586.273.655z" fill="#ffd037"/><path d="m301.026 325.945c-1.089.594-2.04.954-2.122.803-.083-.152.733-.755 1.823-1.349 1.089-.595.664-.161.747 0 .082.16.642-.044-.448.546z" fill="#ffd037"/><path d="m280.031 319.972s-2.7 3.526 1.246 8.853c3.945 5.327 7.196 9.821 5.881 13.14 0 0-5.951-9.891-10.795-10.029-4.844-.139-1.662-6.017 3.668-11.964z" fill="#5843e4"/><path d="m280.031 319.972c-.236.34-.421.713-.551 1.106-4.727 5.548-7.245 10.727-2.7 10.845 4.232.121 9.306 7.686 10.521 9.595-.039.147-.087.292-.143.434 0 0-5.951-9.891-10.795-10.029-4.844-.139-1.662-6.004 3.668-11.951z" fill="#000" opacity=".1"/><path d="m275.014 324.466c0 1.245.139 2.251.312 2.251.174 0 .313-1.006.313-2.251s-.178-.655-.348-.655c-.169 0-.277-.586-.277.655z" fill="#ffd037"/><path d="m273.29 325.945c1.094.594 2.045.954 2.127.803.083-.152-.738-.755-1.827-1.349-1.09-.595-.66-.161-.742 0-.083.16-.647-.044.442.546z" fill="#ffd037"/><path d="m275.873 341.505s7.548-.234 9.823-1.852c2.274-1.618 11.606-3.549 12.153-.955.547 2.595 11.338 12.91 2.821 12.979-8.516.07-19.797-1.327-22.067-2.711s-2.73-7.461-2.73-7.461z" fill="#a8a8a8"/><path d="m300.84 350.771c-8.521.069-19.798-1.323-22.068-2.707-1.736-1.05-2.417-4.828-2.647-6.568h-.252s.477 6.073 2.747 7.462c2.27 1.388 13.547 2.78 22.068 2.711 2.457-.022 3.307-.894 3.26-2.191-.339.79-1.281 1.28-3.108 1.293z" fill="#000" opacity=".2"/><path d="m261.323 347.04c.625-.516 1.079-1.208 1.303-1.987.169-.785-.17-1.735-.921-2.017-.868-.325-1.736.261-2.43.868-.695.607-1.472 1.267-2.366 1.141.461-.417.805-.947 1-1.537s.233-1.22.111-1.829c-.039-.252-.145-.489-.308-.686-.469-.499-1.302-.282-1.879.113-1.784 1.254-2.284 3.674-2.292 5.856-.183-.785-.031-1.605-.035-2.412s-.226-1.7-.907-2.134c-.423-.23-.9-.342-1.38-.325-.803-.031-1.698.047-2.244.637-.682.729-.504 1.952.086 2.751.591.798 1.493 1.301 2.323 1.861.666.394 1.233.936 1.658 1.583.053.088.095.183.125.282h5.031c1.136-.576 2.187-1.304 3.125-2.165z" fill="#5843e4"/><path d="m227.224 344.225s-4.827-16.367.903-28.413c2.431-5.04 3.16-10.731 2.079-16.22-.533-2.602-1.302-5.15-2.296-7.613" stroke="#535461" stroke-miterlimit="10" stroke-width="2"/><path d="m231.508 284.366c0 2.004-3.637 7.808-3.637 7.808s-3.633-5.817-3.633-7.808c.032-.942.43-1.834 1.108-2.489.678-.654 1.584-1.02 2.527-1.02s1.849.366 2.527 1.02c.678.655 1.076 1.547 1.108 2.489z" fill="#5843e4"/><path d="m237.494 295.476c-1.094 1.687-7.306 4.593-7.306 4.593s.113-6.858 1.203-8.541c.524-.809 1.347-1.376 2.29-1.578s1.927-.021 2.736.502c.809.524 1.377 1.347 1.579 2.289s.021 1.926-.502 2.735z" fill="#5843e4"/><path d="m237.229 314.463c-1.793.906-8.625.282-8.625.282s3.56-5.865 5.352-6.768c.426-.214.89-.343 1.366-.379.476-.035.954.024 1.408.173.453.149.872.386 1.234.697s.658.691.873 1.117c.215.425.344.889.379 1.365.036.476-.023.954-.172 1.406-.149.453-.387.873-.698 1.234s-.691.658-1.117.873z" fill="#5843e4"/><path d="m233.796 328.786c-1.615 1.193-8.456 1.736-8.456 1.736s2.518-6.381 4.132-7.574c.776-.576 1.748-.82 2.703-.678.955.141 1.815.655 2.391 1.43s.82 1.747.678 2.701c-.141.955-.656 1.815-1.431 2.39z" fill="#5843e4"/><path d="m222.558 300.46c1.436 1.397 8.147 2.846 8.147 2.846s-1.645-6.659-3.082-8.056c-.341-.339-.745-.607-1.19-.788-.445-.182-.922-.273-1.402-.27-.481.004-.956.103-1.398.292s-.843.463-1.178.808c-.335.344-.598.752-.775 1.198-.176.447-.262.925-.253 1.405.01.48.115.954.309 1.394.194.439.473.836.822 1.167z" fill="#5843e4"/><path d="m218.751 317.269c1.793.907 8.625.282 8.625.282s-3.559-5.865-5.352-6.767c-.428-.215-.893-.343-1.37-.378-.478-.035-.957.024-1.411.175-.455.15-.875.388-1.237.701-.362.312-.659.693-.874 1.12s-.343.893-.378 1.37.024.956.174 1.41c.151.454.389.874.702 1.235.313.362.694.659 1.121.874z" fill="#5843e4"/><path d="m217.293 334.092c1.614 1.193 8.455 1.735 8.455 1.735s-2.517-6.381-4.132-7.574c-.384-.285-.82-.492-1.283-.608-.464-.116-.946-.14-1.418-.071-.473.07-.928.232-1.338.477s-.768.569-1.053.952c-.285.384-.491.819-.608 1.283-.116.463-.14.944-.071 1.417.07.472.232.927.478 1.336.245.41.569.768.952 1.053z" fill="#5843e4"/><path d="m231.508 284.366c0 2.004-3.637 7.808-3.637 7.808s-3.633-5.817-3.633-7.808c.032-.942.43-1.834 1.108-2.489.678-.654 1.584-1.02 2.527-1.02s1.849.366 2.527 1.02c.678.655 1.076 1.547 1.108 2.489z" fill="#5843e4"/><path d="m237.494 295.476c-1.094 1.687-7.306 4.593-7.306 4.593s.113-6.858 1.203-8.541c.524-.809 1.347-1.376 2.29-1.578s1.927-.021 2.736.502c.809.524 1.377 1.347 1.579 2.289s.021 1.926-.502 2.735z" fill="#5843e4"/><path d="m237.229 314.463c-1.793.906-8.625.282-8.625.282s3.56-5.865 5.352-6.768c.426-.214.89-.343 1.366-.379.476-.035.954.024 1.408.173.453.149.872.386 1.234.697s.658.691.873 1.117c.215.425.344.889.379 1.365.036.476-.023.954-.172 1.406-.149.453-.387.873-.698 1.234s-.691.658-1.117.873z" fill="#5843e4"/><path d="m233.796 328.786c-1.615 1.193-8.456 1.736-8.456 1.736s2.518-6.381 4.132-7.574c.776-.576 1.748-.82 2.703-.678.955.141 1.815.655 2.391 1.43s.82 1.747.678 2.701c-.141.955-.656 1.815-1.431 2.39z" fill="#5843e4"/><path d="m222.558 300.46c1.436 1.397 8.147 2.846 8.147 2.846s-1.645-6.659-3.082-8.056c-.341-.339-.745-.607-1.19-.788-.445-.182-.922-.273-1.402-.27-.481.004-.956.103-1.398.292s-.843.463-1.178.808c-.335.344-.598.752-.775 1.198-.176.447-.262.925-.253 1.405.01.48.115.954.309 1.394.194.439.473.836.822 1.167z" fill="#5843e4"/><path d="m218.751 317.269c1.793.907 8.625.282 8.625.282s-3.559-5.865-5.352-6.767c-.428-.215-.893-.343-1.37-.378-.478-.035-.957.024-1.411.175-.455.15-.875.388-1.237.701-.362.312-.659.693-.874 1.12s-.343.893-.378 1.37.024.956.174 1.41c.151.454.389.874.702 1.235.313.362.694.659 1.121.874z" fill="#5843e4"/><path d="m217.293 334.092c1.614 1.193 8.455 1.735 8.455 1.735s-2.517-6.381-4.132-7.574c-.384-.285-.82-.492-1.283-.608-.464-.116-.946-.14-1.418-.071-.473.07-.928.232-1.338.477s-.768.569-1.053.952c-.285.384-.491.819-.608 1.283-.116.463-.14.944-.071 1.417.07.472.232.927.478 1.336.245.41.569.768.952 1.053z" fill="#5843e4"/><path d="m215.821 343.193s5.873-1.167 7.44-2.72 8.616-4.273 9.397-2.334c.782 1.939 10.574 8.55 3.907 9.717s-15.661 1.553-17.619.776c-1.957-.776-3.125-5.439-3.125-5.439z" fill="#a8a8a8"/><path d="m236.578 347.131c-6.659 1.167-15.665 1.553-17.623.777-1.493-.59-2.526-3.436-2.938-4.772l-.196.043s1.177 4.664 3.134 5.44c1.958.777 10.964.386 17.623-.776 1.918-.339 2.47-1.128 2.261-2.13-.165.668-.82 1.167-2.261 1.418z" fill="#000" opacity=".2"/></svg>